<?xml version="1.0" encoding="utf-8"?>
<!-- Generator: Adobe Illustrator 16.0.0, SVG Export Plug-In . SVG Version: 6.00 Build 0)  -->
<!DOCTYPE svg PUBLIC "-//W3C//DTD SVG 1.1//EN" "http://www.w3.org/Graphics/SVG/1.1/DTD/svg11.dtd">
<svg version="1.1" id="圖層_1" xmlns="http://www.w3.org/2000/svg" xmlns:xlink="http://www.w3.org/1999/xlink" x="0px" y="0px"
	 width="430.4px" height="69.296px" viewBox="491.588 229.739 430.4 69.296" enable-background="new 491.588 229.739 430.4 69.296"
	 xml:space="preserve">
<g>
	<path d="M533.292,284.936c-3.312,2.754-7.354,4.131-12.129,4.131c-3.926,0-7.574-1.011-10.942-3.031
		c-3.369-2.021-5.852-5.076-7.449-9.163c-1.597-4.087-2.395-8.87-2.395-14.349c0-4.248,0.674-8.372,2.021-12.371
		c1.347-3.999,3.684-7.185,7.009-9.558s7.463-3.56,12.415-3.56c4.307,0,7.881,1.069,10.723,3.208
		c2.841,2.139,5.01,5.552,6.504,10.238l8.395-1.978c-1.729-5.947-4.79-10.563-9.186-13.843c-4.395-3.281-9.814-4.923-16.26-4.923
		c-5.684,0-10.893,1.297-15.623,3.89s-8.379,6.387-10.942,11.382s-3.845,10.848-3.845,17.556c0,6.152,1.135,11.909,3.406,17.271
		c2.27,5.361,5.581,9.456,9.932,12.283c3.669,2.385,8.271,3.751,13.784,4.124l2.791,2.79l2.757-2.757
		c5.676-0.392,10.558-2.199,14.639-5.432c4.643-3.676,7.858-9.016,9.646-16.018l-8.524-2.153
		C538.844,278.096,536.604,282.183,533.292,284.936z"/>
	<path d="M576.974,247.539c-5.771,0-10.663,1.729-14.678,5.186c-4.805,4.16-7.207,10.563-7.207,19.204
		c0,7.881,2.015,13.916,6.042,18.105c4.028,4.189,9.31,6.283,15.842,6.283c4.072,0,7.829-0.951,11.272-2.855
		c3.442-1.904,6.063-4.577,7.866-8.021c1.802-3.441,2.703-8.167,2.703-14.172c0-7.412-2.037-13.22-6.108-17.424
		C588.634,249.641,583.39,247.539,576.974,247.539z M586.773,285.332c-2.608,2.987-5.875,4.481-9.801,4.481
		c-3.955,0-7.235-1.486-9.844-4.46c-2.607-2.973-3.911-7.449-3.911-13.425s1.304-10.444,3.911-13.403s5.889-4.438,9.844-4.438
		c3.896,0,7.156,1.487,9.778,4.46c2.622,2.974,3.933,7.346,3.933,13.118C590.686,277.788,589.381,282.343,586.773,285.332z"/>
	<path d="M638,253.955c-2-1.904-3.245-3.45-5.442-4.637c-2.196-1.186-4.743-1.779-7.555-1.779c-3.838,0-7.331,1.011-10.435,3.031
		c-3.105,2.021-5.445,4.93-6.998,8.724s-2.334,8.02-2.334,12.678c0,4.775,0.854,9.002,2.567,12.678
		c1.714,3.678,4.13,6.541,7.25,8.592c3.12,2.05,6.357,3.075,10.078,3.075c5.742,0,9.869-2.313,12.869-6.942V295h8v-64h-8
		L638,253.955L638,253.955z M634.872,285.573c-2.417,2.828-5.354,4.241-8.812,4.241c-3.428,0-6.4-1.479-8.921-4.438
		c-2.52-2.959-3.778-7.427-3.778-13.403c0-6.181,1.179-10.708,3.538-13.579c2.357-2.871,5.295-4.307,8.811-4.307
		c3.604,0,6.636,1.494,9.097,4.481c2.461,2.988,3.691,7.677,3.691,14.063C638.497,278.432,637.289,282.746,634.872,285.573z"/>
	<path d="M677.301,247.539c-6.445,0-11.688,2.168-15.731,6.504s-6.064,10.43-6.064,18.281c0,7.588,2,13.483,5.999,17.688
		s9.411,6.306,16.238,6.306c5.42,0,9.873-1.317,13.359-3.955c3.485-2.637,5.873-6.343,7.162-11.117l-8.174-1.012
		c-1.202,3.341-2.828,5.772-4.878,7.295c-2.051,1.523-4.526,2.285-7.427,2.285c-3.896,0-7.148-1.337-9.756-4.062
		c-2.608-2.726-4.059-6.752-4.352-11.752h34.806c0.028-1,0.044-1.666,0.044-2.136c0-7.704-1.979-13.693-5.934-17.941
		C688.639,249.676,683.541,247.539,677.301,247.539z M664.117,267c0.264-4,1.633-7.102,4.109-9.533
		c2.476-2.432,5.529-3.536,9.162-3.536c4.015,0,7.28,1.356,9.801,4.403c1.641,1.963,2.637,5.666,2.987,8.666H664.117z"/>
	<path d="M745.372,260.986c3.017-1.493,5.272-3.457,6.768-5.889c1.494-2.432,2.241-5.024,2.241-7.778
		c0-2.959-0.842-5.793-2.527-8.503c-1.685-2.709-4.014-4.637-6.986-5.939c-2.975-1.304-6.921-1.875-11.843-1.875H709v64h17.201
		l-0.237,0.368l3.536,3.602l3.536-3.634L732.799,295h0.62c4.103,0,7.565-0.228,10.394-0.945c2.826-0.718,5.178-1.714,7.053-3.12
		s3.449-3.373,4.724-5.965s1.912-5.382,1.912-8.399c0-3.75-1.048-6.993-3.142-9.747
		C752.264,264.069,749.268,262.128,745.372,260.986z M717,238h13.255c4.629,0,7.896,0.521,9.8,1.122
		c1.904,0.601,3.369,1.823,4.396,3.449c1.024,1.626,1.538,3.564,1.538,5.702c0,2.256-0.549,4.158-1.648,5.652
		c-1.099,1.494-2.731,2.623-4.9,3.267c-1.641,0.499-4.351,0.807-8.129,0.807H717V238z M747.395,282.014
		c-0.851,1.567-1.935,2.762-3.253,3.582c-1.317,0.82-2.959,1.576-4.922,1.927c-1.114,0.205-3.047,0.479-5.801,0.479H717v-22h15.276
		c4.102,0,7.243,0.115,9.426,0.833c2.182,0.718,3.889,1.841,5.12,3.612c1.229,1.773,1.846,3.8,1.846,6.201
		C748.668,278.698,748.243,280.447,747.395,282.014z"/>
	<rect x="768" y="231" width="8" height="64"/>
	<path d="M807.159,247.539c-5.772,0-10.664,1.729-14.679,5.186c-4.805,4.16-7.206,10.563-7.206,19.204
		c0,7.881,2.014,13.916,6.042,18.105c4.027,4.189,9.309,6.283,15.842,6.283c4.072,0,7.829-0.951,11.271-2.855
		s6.064-4.577,7.866-8.021c1.802-3.441,2.703-8.167,2.703-14.172c0-7.412-2.037-13.22-6.108-17.424
		C818.819,249.641,813.575,247.539,807.159,247.539z M816.959,285.332c-2.607,2.987-5.874,4.481-9.8,4.481
		c-3.955,0-7.236-1.486-9.845-4.46c-2.607-2.973-3.91-7.449-3.91-13.425s1.303-10.444,3.91-13.403s5.89-4.438,9.845-4.438
		c3.896,0,7.155,1.487,9.778,4.46c2.621,2.974,3.933,7.346,3.933,13.118C820.87,277.788,819.566,282.343,816.959,285.332z"/>
	<path d="M864.771,286.958c-2.082,1.904-4.674,2.855-7.778,2.855c-3.867,0-7.002-1.421-9.404-4.263
		c-2.401-2.841-3.604-7.397-3.604-13.667c0-6.181,1.245-10.701,3.734-13.557c2.49-2.856,5.729-4.285,9.712-4.285
		c2.638,0,4.885,0.791,6.746,2.373c1.86,1.582,3.157,3.939,3.889,7.074l7.69-1.187c-0.908-4.717-2.974-8.356-6.196-10.92
		s-7.367-3.845-12.437-3.845c-4.015,0-7.729,0.944-11.14,2.834c-3.414,1.89-5.955,4.724-7.625,8.503
		c-1.67,3.778-2.506,8.188-2.506,13.228c0,7.793,1.94,13.777,5.823,17.952c3.882,4.175,9.017,6.262,15.403,6.262
		c5.098,0,9.396-1.516,12.897-4.548c3.5-3.032,5.677-7.229,6.526-12.59l-7.778-1.011
		C868.17,282.124,866.852,285.053,864.771,286.958z"/>
	<polygon points="902.345,265.979 920.188,249 909.947,249 891,267.578 891,231 883,231 883,295 891,295 891,276.762 
		896.694,271.27 912.232,295 921.988,295 	"/>
</g>
</svg>
